<svg width="24" height="24" viewBox="0 0 24 24" fill="none" xmlns="http://www.w3.org/2000/svg">
<path d="M20.9359 10.7434C20.9415 9.63922 20.7165 8.54483 20.2736 7.5227C19.8308 6.50057 19.1789 5.57071 18.3551 4.78622C17.5312 4.00173 16.5516 3.37796 15.4722 2.95055C14.3928 2.52313 13.2347 2.30043 12.064 2.29516H12C10.8247 2.29515 9.661 2.51382 8.57545 2.93863C7.48991 3.36344 6.50388 3.98605 5.67383 4.7708C4.84378 5.55555 4.18601 6.48704 3.7382 7.5119C3.29038 8.53677 3.06132 9.63489 3.06412 10.7434C3.06412 14.1026 2.33902 15.9833 1.73121 16.9689C1.54309 17.2762 1.44406 17.6248 1.44406 17.9797C1.44406 18.3345 1.54309 18.6831 1.73121 18.9905C1.91567 19.298 2.18399 19.5535 2.50835 19.7303C2.83272 19.9071 3.20132 19.9989 3.57596 19.9962H7.32946C7.4406 21.0919 7.98069 22.1092 8.84428 22.8495C9.70788 23.5898 10.833 24 12 24C13.167 24 14.2921 23.5898 15.1557 22.8495C16.0193 22.1092 16.5594 21.0919 16.6705 19.9962H20.424C20.7987 19.9989 21.1673 19.9071 21.4916 19.7303C21.816 19.5535 22.0843 19.298 22.2688 18.9905C22.4569 18.6831 22.5559 18.3345 22.5559 17.9797C22.5559 17.6248 22.4569 17.2762 22.2688 16.9689C21.661 15.9833 20.9359 14.1026 20.9359 10.7434ZM12 21.6054C11.5089 21.6036 11.0333 21.4428 10.6529 21.1499C10.2724 20.8569 10.0102 20.4497 9.90999 19.9962H14.09C13.9898 20.4497 13.7276 20.8569 13.3471 21.1499C12.9667 21.4428 12.4911 21.6036 12 21.6054ZM4.27974 17.5824C5.37807 15.4201 5.62332 12.7146 5.62332 10.7434C5.62183 9.94549 5.78785 9.15521 6.11179 8.41814C6.43573 7.68106 6.91118 7.01177 7.51074 6.44887C8.10065 5.89428 8.80092 5.45507 9.57133 5.15648C10.3417 4.85789 11.1671 4.7058 12 4.70893H12.0533C13.739 4.72222 15.3504 5.36449 16.5354 6.49531C17.7204 7.62612 18.3824 9.15347 18.3767 10.7434C18.3767 12.7146 18.6219 15.4201 19.7203 17.5824H4.27974ZM23.2818 6.85116C23.1077 6.93803 22.9136 6.98294 22.7167 6.98191C22.4789 6.98067 22.2462 6.91697 22.0446 6.79794C21.8431 6.67891 21.6807 6.50928 21.5757 6.30806C20.7015 4.6377 19.3544 3.22797 17.6836 2.23481C17.5394 2.15117 17.4143 2.0414 17.3155 1.91185C17.2166 1.7823 17.146 1.63554 17.1077 1.48008C17.0694 1.32461 17.0642 1.16352 17.0923 1.00613C17.1205 0.848745 17.1814 0.698188 17.2717 0.563176C17.3619 0.428164 17.4797 0.311379 17.6181 0.219581C17.7566 0.127784 17.9129 0.0627981 18.0782 0.0283853C18.2434 -0.00602759 18.4143 -0.00918361 18.5808 0.0190998C18.7474 0.0473833 18.9063 0.106544 19.0485 0.193158C21.1206 1.42175 22.7894 3.16987 23.8683 5.24198C23.9427 5.3838 23.9866 5.53814 23.9974 5.69606C24.0082 5.85398 23.9856 6.01235 23.9311 6.162C23.8765 6.31165 23.7911 6.44962 23.6796 6.56791C23.5682 6.6862 23.433 6.78248 23.2818 6.85116ZM1.28335 6.98191C1.08641 6.98294 0.892265 6.93803 0.71819 6.85116C0.567035 6.78248 0.431823 6.6862 0.320376 6.56791C0.20893 6.44962 0.123463 6.31165 0.0689203 6.162C0.0143779 6.01235 -0.00815661 5.85398 0.00262057 5.69606C0.0133977 5.53814 0.0572727 5.3838 0.131707 5.24198C1.21057 3.16987 2.87941 1.42175 4.95153 0.193158C5.09368 0.106544 5.25262 0.0473833 5.41917 0.0190998C5.58572 -0.00918361 5.75656 -0.00602759 5.92181 0.0283853C6.08706 0.0627981 6.24342 0.127784 6.38186 0.219581C6.5203 0.311379 6.63805 0.428164 6.72831 0.563176C6.81857 0.698188 6.87954 0.848745 6.90769 1.00613C6.93584 1.16352 6.93061 1.32461 6.89231 1.48008C6.854 1.63554 6.78338 1.7823 6.68453 1.91185C6.58569 2.0414 6.46057 2.15117 6.31644 2.23481C4.64556 3.22797 3.29852 4.6377 2.42432 6.30806C2.31931 6.50928 2.15692 6.67891 1.95538 6.79794C1.75384 6.91697 1.52113 6.98067 1.28335 6.98191Z" fill="#FDB623"/>
</svg>
