<svg width="34" height="34" viewBox="0 0 34 34" fill="none" xmlns="http://www.w3.org/2000/svg">
<path d="M10.252 0H24.0892C29.3605 0 33.6435 4.33333 33.6435 9.66667V23.6667C33.6435 26.2304 32.6369 28.6892 30.8451 30.502C29.0533 32.3149 26.6232 33.3333 24.0892 33.3333H10.252C4.9807 33.3333 0.697754 29 0.697754 23.6667V9.66667C0.697754 7.10291 1.70436 4.64415 3.49613 2.8313C5.2879 1.01845 7.71807 0 10.252 0ZM9.92256 3.33333C8.34976 3.33333 6.84139 3.96547 5.72925 5.09069C4.61712 6.21591 3.99233 7.74203 3.99233 9.33333V24C3.99233 27.3167 6.64446 30 9.92256 30H24.4187C25.9915 30 27.4999 29.3679 28.612 28.2426C29.7241 27.1174 30.3489 25.5913 30.3489 24V9.33333C30.3489 6.01667 27.6968 3.33333 24.4187 3.33333H9.92256ZM25.8189 5.83333C26.365 5.83333 26.8887 6.05283 27.2749 6.44353C27.661 6.83423 27.878 7.36413 27.878 7.91667C27.878 8.4692 27.661 8.9991 27.2749 9.38981C26.8887 9.78051 26.365 10 25.8189 10C25.2728 10 24.749 9.78051 24.3629 9.38981C23.9767 8.9991 23.7598 8.4692 23.7598 7.91667C23.7598 7.36413 23.9767 6.83423 24.3629 6.44353C24.749 6.05283 25.2728 5.83333 25.8189 5.83333ZM17.1706 8.33333C19.3551 8.33333 21.45 9.21131 22.9947 10.7741C24.5393 12.3369 25.4071 14.4565 25.4071 16.6667C25.4071 18.8768 24.5393 20.9964 22.9947 22.5592C21.45 24.122 19.3551 25 17.1706 25C14.9862 25 12.8912 24.122 11.3466 22.5592C9.80195 20.9964 8.93419 18.8768 8.93419 16.6667C8.93419 14.4565 9.80195 12.3369 11.3466 10.7741C12.8912 9.21131 14.9862 8.33333 17.1706 8.33333ZM17.1706 11.6667C15.86 11.6667 14.603 12.1934 13.6762 13.1311C12.7494 14.0688 12.2288 15.3406 12.2288 16.6667C12.2288 17.9927 12.7494 19.2645 13.6762 20.2022C14.603 21.1399 15.86 21.6667 17.1706 21.6667C18.4813 21.6667 19.7383 21.1399 20.665 20.2022C21.5918 19.2645 22.1125 17.9927 22.1125 16.6667C22.1125 15.3406 21.5918 14.0688 20.665 13.1311C19.7383 12.1934 18.4813 11.6667 17.1706 11.6667Z" fill="#FDB623"/>
</svg>
